<svg width="800" height="800" viewBox="0 0 800 800" fill="none" xmlns="http://www.w3.org/2000/svg">
<path d="M406.25 553.75C241.25 553.75 103.75 502.5 72.5 435C130 611.25 95 775 406.25 775C717.5 775 682.5 611.25 740 435C708.75 502.5 571.25 553.75 406.25 553.75Z" fill="#3E4347"/>
<path d="M252.5 256.25C428.75 207.5 833.75 281.25 745 448.75C793.75 503.75 811.25 562.5 578.75 558.75C221.25 642.5 -73.75 468.75 56.25 337.5C25 273.75 93.75 241.25 252.5 256.25Z" fill="#6F7980"/>
<path d="M406.25 546.25C562.5 546.25 692.5 497.5 722.5 433.75C725 427.5 726.25 421.25 728.75 415C728.75 411.25 730 408.75 730 405C730 327.5 585 265 407.5 265C230 265 85 327.5 85 405C85 408.75 85 411.25 86.25 415C87.5 421.25 90 427.5 92.5 433.75C120 497.5 250 546.25 406.25 546.25Z" fill="#3E4347"/>
<path d="M406.25 546.25C562.5 546.25 692.5 497.5 722.5 433.75C722.5 431.25 723.75 430 723.75 427.5C697.5 361.25 565 311.25 405 311.25C245 311.25 112.5 361.25 86.25 427.5C87.5 430 87.5 431.25 87.5 433.75C120 497.5 250 546.25 406.25 546.25Z" fill="#FBBF67"/>
<path d="M450 380C387.5 378.75 311.25 428.75 260 425C175 418.75 262.5 460 322.5 460C362.5 460 390 423.75 411.25 408.75C441.25 390 515 381.25 450 380Z" fill="#D33B23"/>
<path d="M265 338.75C248.75 293.75 155 367.5 235 383.75C247.5 386.25 278.75 378.75 265 338.75ZM446.25 480C426.25 425 310 516.25 410 535C425 537.5 463.75 528.75 446.25 480ZM467.5 322.5C448.75 277.5 332.5 351.25 431.25 367.5C445 368.75 483.75 361.25 467.5 322.5ZM658.75 371.25C651.25 322.5 502.5 350 605 401.25C620 408.75 665 415 658.75 371.25Z" fill="#FF8736"/>
<path d="M188.75 415C175 396.25 155 371.25 147.5 383.75C136.25 401.25 132.5 436.25 141.25 437.5C203.75 450 198.75 430 188.75 415ZM532.5 380C510 390 496.25 382.5 486.25 397.5C462.5 431.25 543.75 442.5 558.75 422.5C570 408.75 547.5 373.75 532.5 380ZM551.25 463.75C535 456.25 538.75 481.25 513.75 461.25C496.25 447.5 458.75 482.5 483.75 506.25C511.25 532.5 518.75 507.5 530 510C553.75 513.75 595 482.5 551.25 463.75ZM276.25 471.25C261.25 456.25 237.5 498.75 246.25 510C265 535 332.5 530 350 511.25C372.5 488.75 312.5 506.25 276.25 471.25Z" fill="#89664C"/>
<path d="M218.75 458.75C218.75 458.75 220 473.75 222.5 480C206.25 473.75 206.25 445 206.25 445C206.25 445 195 451.25 196.25 462.5C178.75 447.5 163.75 455 163.75 455C163.75 455 186.25 467.5 190 476.25C177.5 477.5 170 481.25 165 491.25C165 491.25 190 478.75 208.75 487.5C201.25 493.75 205 508.75 205 508.75C235 477.5 253.75 505 267.5 497.5C256.25 482.5 240 480 240 480C233.75 467.5 218.75 458.75 218.75 458.75ZM353.75 336.25C338.75 333.75 323.75 341.25 323.75 341.25C323.75 341.25 337.5 347.5 343.75 350C330 361.25 305 346.25 305 346.25C305 346.25 305 358.75 315 363.75C293.75 371.25 291.25 388.75 291.25 388.75C291.25 388.75 313.75 376.25 322.5 377.5C316.25 388.75 316.25 397.5 323.75 406.25C323.75 406.25 326.25 378.75 343.75 367.5C345 377.5 360 381.25 360 381.25C348.75 340 382.5 337.5 382.5 322.5C365 322.5 353.75 336.25 353.75 336.25ZM645 448.75C651.25 442.5 677.5 438.75 677.5 438.75C677.5 438.75 666.25 426.25 643.75 432.5C648.75 422.5 641.25 412.5 641.25 412.5C641.25 412.5 630 438.75 612.5 438.75C617.5 432.5 623.75 420 623.75 420C623.75 420 606.25 423.75 596.25 435C596.25 435 580 430 565 440C573.75 452.5 602.5 433.75 617.5 473.75C617.5 473.75 626.25 461.25 622.5 452.5C642.5 451.25 661.25 472.5 661.25 472.5C661.25 461.25 656.25 455 645 448.75Z" fill="#699635"/>
<path opacity="0.6" d="M416.25 142.5C370 95 401.25 25 401.25 25C401.25 25 303.75 117.5 365 181.25C436.25 255 401.25 300 401.25 300C401.25 300 488.75 217.5 416.25 142.5ZM278.75 185C243.75 151.25 267.5 100 267.5 100C267.5 100 195 167.5 241.25 213.75C295 267.5 267.5 300 267.5 300C267.5 300 332.5 240 278.75 185ZM553.75 185C518.75 151.25 542.5 100 542.5 100C542.5 100 470 167.5 516.25 213.75C570 267.5 542.5 300 542.5 300C542.5 300 607.5 240 553.75 185Z" fill="#A6AEB0"/>
</svg>
